<mxfile host="app.diagrams.net" modified="2024-05-09T01:01:10.973Z" agent="Mozilla/5.0 (X11; Linux x86_64) AppleWebKit/537.36 (KHTML, like Gecko) Chrome/124.0.0.0 Safari/537.36" etag="nDOLzfjtE67sVpmtvDt1" version="24.3.1" type="device">
  <diagram name="Page-1" id="2YBvvXClWsGukQMizWep">
    <mxGraphModel dx="1364" dy="799" grid="1" gridSize="10" guides="1" tooltips="1" connect="1" arrows="1" fold="1" page="1" pageScale="1" pageWidth="850" pageHeight="1100" math="0" shadow="0">
      <root>
        <mxCell id="0" />
        <mxCell id="1" parent="0" />
        <mxCell id="Qxd5GKGvkfQN9am01lqt-1" value="Actor" style="shape=umlActor;verticalLabelPosition=bottom;verticalAlign=top;html=1;outlineConnect=0;" parent="1" vertex="1">
          <mxGeometry x="90" y="40" width="30" height="60" as="geometry" />
        </mxCell>
        <mxCell id="Qxd5GKGvkfQN9am01lqt-2" value="&lt;b&gt;&lt;font style=&quot;font-size: 14px;&quot;&gt;mainWindow&lt;/font&gt;&lt;/b&gt;" style="rounded=0;whiteSpace=wrap;html=1;" parent="1" vertex="1">
          <mxGeometry x="240" y="40" width="120" height="60" as="geometry" />
        </mxCell>
        <mxCell id="Qxd5GKGvkfQN9am01lqt-3" value="&lt;b&gt;&lt;font style=&quot;font-size: 14px;&quot;&gt;View&lt;/font&gt;&lt;/b&gt;" style="rounded=0;whiteSpace=wrap;html=1;" parent="1" vertex="1">
          <mxGeometry x="440" y="40" width="120" height="60" as="geometry" />
        </mxCell>
        <mxCell id="Qxd5GKGvkfQN9am01lqt-4" value="&lt;font style=&quot;font-size: 14px;&quot;&gt;&lt;b&gt;Control&lt;/b&gt;&lt;/font&gt;" style="rounded=0;whiteSpace=wrap;html=1;" parent="1" vertex="1">
          <mxGeometry x="640" y="40" width="120" height="60" as="geometry" />
        </mxCell>
        <mxCell id="Qxd5GKGvkfQN9am01lqt-6" value="" style="endArrow=none;dashed=1;html=1;rounded=0;entryX=0.5;entryY=1;entryDx=0;entryDy=0;" parent="1" target="Qxd5GKGvkfQN9am01lqt-2" edge="1" source="TRFPOVRPUdY9dY21Y0_1-2">
          <mxGeometry width="50" height="50" relative="1" as="geometry">
            <mxPoint x="300" y="1200" as="sourcePoint" />
            <mxPoint x="300" y="120" as="targetPoint" />
          </mxGeometry>
        </mxCell>
        <mxCell id="Qxd5GKGvkfQN9am01lqt-7" value="&lt;font size=&quot;1&quot; style=&quot;&quot;&gt;&lt;b style=&quot;font-size: 14px;&quot;&gt;socket Handler&lt;/b&gt;&lt;/font&gt;" style="rounded=0;whiteSpace=wrap;html=1;" parent="1" vertex="1">
          <mxGeometry x="840" y="40" width="120" height="60" as="geometry" />
        </mxCell>
        <mxCell id="Qxd5GKGvkfQN9am01lqt-9" value="" style="endArrow=none;dashed=1;html=1;rounded=0;" parent="1" edge="1">
          <mxGeometry width="50" height="50" relative="1" as="geometry">
            <mxPoint x="120" y="1200" as="sourcePoint" />
            <mxPoint x="120" y="100" as="targetPoint" />
          </mxGeometry>
        </mxCell>
        <mxCell id="Qxd5GKGvkfQN9am01lqt-10" value="" style="endArrow=classic;html=1;rounded=0;" parent="1" edge="1">
          <mxGeometry width="50" height="50" relative="1" as="geometry">
            <mxPoint x="120" y="160" as="sourcePoint" />
            <mxPoint x="300" y="160" as="targetPoint" />
          </mxGeometry>
        </mxCell>
        <mxCell id="Qxd5GKGvkfQN9am01lqt-11" value="&lt;b style=&quot;font-size: 13px;&quot;&gt;on_loginBtn_clicked&lt;/b&gt;" style="edgeLabel;html=1;align=center;verticalAlign=middle;resizable=0;points=[];" parent="Qxd5GKGvkfQN9am01lqt-10" vertex="1" connectable="0">
          <mxGeometry x="0.0778" y="-2" relative="1" as="geometry">
            <mxPoint x="-7" y="-2" as="offset" />
          </mxGeometry>
        </mxCell>
        <mxCell id="Qxd5GKGvkfQN9am01lqt-12" value="" style="endArrow=none;dashed=1;html=1;rounded=0;entryX=0.5;entryY=1;entryDx=0;entryDy=0;" parent="1" target="Qxd5GKGvkfQN9am01lqt-3" edge="1">
          <mxGeometry width="50" height="50" relative="1" as="geometry">
            <mxPoint x="500" y="1200" as="sourcePoint" />
            <mxPoint x="500" y="140" as="targetPoint" />
          </mxGeometry>
        </mxCell>
        <mxCell id="Qxd5GKGvkfQN9am01lqt-13" value="" style="endArrow=classic;html=1;rounded=0;" parent="1" edge="1">
          <mxGeometry width="50" height="50" relative="1" as="geometry">
            <mxPoint x="300" y="440" as="sourcePoint" />
            <mxPoint x="500" y="440" as="targetPoint" />
          </mxGeometry>
        </mxCell>
        <mxCell id="Qxd5GKGvkfQN9am01lqt-14" value="&lt;div style=&quot;&quot;&gt;&lt;b&gt;&lt;font style=&quot;font-size: 14px;&quot;&gt;sendRequest_mW_View&lt;/font&gt;&lt;/b&gt;&lt;br&gt;&lt;/div&gt;" style="edgeLabel;html=1;align=center;verticalAlign=middle;resizable=0;points=[];" parent="Qxd5GKGvkfQN9am01lqt-13" vertex="1" connectable="0">
          <mxGeometry x="-0.1375" y="-4" relative="1" as="geometry">
            <mxPoint x="11" y="-14" as="offset" />
          </mxGeometry>
        </mxCell>
        <mxCell id="Qxd5GKGvkfQN9am01lqt-17" value="" style="endArrow=none;dashed=1;html=1;rounded=0;entryX=0.5;entryY=1;entryDx=0;entryDy=0;" parent="1" target="Qxd5GKGvkfQN9am01lqt-4" edge="1">
          <mxGeometry width="50" height="50" relative="1" as="geometry">
            <mxPoint x="700" y="1200" as="sourcePoint" />
            <mxPoint x="700" y="150" as="targetPoint" />
          </mxGeometry>
        </mxCell>
        <mxCell id="Qxd5GKGvkfQN9am01lqt-18" value="" style="endArrow=none;dashed=1;html=1;rounded=0;entryX=0.5;entryY=1;entryDx=0;entryDy=0;" parent="1" target="Qxd5GKGvkfQN9am01lqt-7" edge="1">
          <mxGeometry width="50" height="50" relative="1" as="geometry">
            <mxPoint x="900" y="1200" as="sourcePoint" />
            <mxPoint x="910" y="140" as="targetPoint" />
          </mxGeometry>
        </mxCell>
        <mxCell id="Qxd5GKGvkfQN9am01lqt-19" value="" style="endArrow=classic;html=1;rounded=0;" parent="1" edge="1">
          <mxGeometry width="50" height="50" relative="1" as="geometry">
            <mxPoint x="505" y="450" as="sourcePoint" />
            <mxPoint x="705" y="450" as="targetPoint" />
          </mxGeometry>
        </mxCell>
        <mxCell id="Qxd5GKGvkfQN9am01lqt-21" value="&lt;b&gt;&lt;font style=&quot;font-size: 14px;&quot;&gt;make Request&lt;/font&gt;&lt;/b&gt;" style="edgeLabel;html=1;align=center;verticalAlign=middle;resizable=0;points=[];" parent="Qxd5GKGvkfQN9am01lqt-19" vertex="1" connectable="0">
          <mxGeometry x="-0.025" relative="1" as="geometry">
            <mxPoint as="offset" />
          </mxGeometry>
        </mxCell>
        <mxCell id="Qxd5GKGvkfQN9am01lqt-22" value="" style="endArrow=classic;html=1;rounded=0;" parent="1" edge="1">
          <mxGeometry width="50" height="50" relative="1" as="geometry">
            <mxPoint x="705" y="459.31" as="sourcePoint" />
            <mxPoint x="905" y="459.31" as="targetPoint" />
          </mxGeometry>
        </mxCell>
        <mxCell id="Qxd5GKGvkfQN9am01lqt-23" value="&lt;b&gt;&lt;font style=&quot;font-size: 14px;&quot;&gt;write to Socket&lt;/font&gt;&lt;/b&gt;" style="edgeLabel;html=1;align=center;verticalAlign=middle;resizable=0;points=[];" parent="Qxd5GKGvkfQN9am01lqt-22" vertex="1" connectable="0">
          <mxGeometry x="-0.0625" y="4" relative="1" as="geometry">
            <mxPoint y="4" as="offset" />
          </mxGeometry>
        </mxCell>
        <mxCell id="Qxd5GKGvkfQN9am01lqt-25" value="&lt;font style=&quot;font-size: 14px;&quot;&gt;&lt;b&gt;Server&lt;/b&gt;&lt;/font&gt;" style="rounded=0;whiteSpace=wrap;html=1;" parent="1" vertex="1">
          <mxGeometry x="1040" y="40" width="120" height="60" as="geometry" />
        </mxCell>
        <mxCell id="Qxd5GKGvkfQN9am01lqt-26" value="&lt;b&gt;&lt;font style=&quot;font-size: 14px;&quot;&gt;Client Hnadler&lt;/font&gt;&lt;/b&gt;" style="rounded=0;whiteSpace=wrap;html=1;" parent="1" vertex="1">
          <mxGeometry x="1240" y="40" width="120" height="60" as="geometry" />
        </mxCell>
        <mxCell id="Qxd5GKGvkfQN9am01lqt-27" value="" style="endArrow=none;dashed=1;html=1;rounded=0;entryX=0.5;entryY=1;entryDx=0;entryDy=0;" parent="1" target="Qxd5GKGvkfQN9am01lqt-25" edge="1">
          <mxGeometry width="50" height="50" relative="1" as="geometry">
            <mxPoint x="1100" y="1200" as="sourcePoint" />
            <mxPoint x="1100" y="120" as="targetPoint" />
          </mxGeometry>
        </mxCell>
        <mxCell id="Qxd5GKGvkfQN9am01lqt-28" value="" style="endArrow=classic;html=1;rounded=0;" parent="1" edge="1" target="TRFPOVRPUdY9dY21Y0_1-7">
          <mxGeometry width="50" height="50" relative="1" as="geometry">
            <mxPoint x="900" y="680" as="sourcePoint" />
            <mxPoint x="1100" y="680" as="targetPoint" />
          </mxGeometry>
        </mxCell>
        <mxCell id="Qxd5GKGvkfQN9am01lqt-29" value="&lt;font style=&quot;font-size: 14px;&quot;&gt;&lt;b&gt;Incoming connection&lt;/b&gt;&lt;/font&gt;" style="edgeLabel;html=1;align=center;verticalAlign=middle;resizable=0;points=[];" parent="Qxd5GKGvkfQN9am01lqt-28" vertex="1" connectable="0">
          <mxGeometry x="-0.01" y="2" relative="1" as="geometry">
            <mxPoint as="offset" />
          </mxGeometry>
        </mxCell>
        <mxCell id="Qxd5GKGvkfQN9am01lqt-32" value="" style="endArrow=none;dashed=1;html=1;rounded=0;entryX=0.5;entryY=1;entryDx=0;entryDy=0;" parent="1" target="Qxd5GKGvkfQN9am01lqt-26" edge="1" source="TRFPOVRPUdY9dY21Y0_1-9">
          <mxGeometry width="50" height="50" relative="1" as="geometry">
            <mxPoint x="1300" y="1200" as="sourcePoint" />
            <mxPoint x="1310" y="120" as="targetPoint" />
          </mxGeometry>
        </mxCell>
        <mxCell id="Qxd5GKGvkfQN9am01lqt-33" value="" style="endArrow=classic;html=1;rounded=0;" parent="1" edge="1">
          <mxGeometry width="50" height="50" relative="1" as="geometry">
            <mxPoint x="1100" y="700" as="sourcePoint" />
            <mxPoint x="1300" y="700" as="targetPoint" />
          </mxGeometry>
        </mxCell>
        <mxCell id="Qxd5GKGvkfQN9am01lqt-36" value="&lt;b&gt;&lt;font style=&quot;font-size: 14px;&quot;&gt;readyRead&lt;/font&gt;&lt;/b&gt;" style="edgeLabel;html=1;align=center;verticalAlign=middle;resizable=0;points=[];" parent="Qxd5GKGvkfQN9am01lqt-33" vertex="1" connectable="0">
          <mxGeometry x="-0.02" y="1" relative="1" as="geometry">
            <mxPoint as="offset" />
          </mxGeometry>
        </mxCell>
        <mxCell id="Qxd5GKGvkfQN9am01lqt-37" value="&lt;b&gt;&lt;font style=&quot;font-size: 14px;&quot;&gt;Request Handler&lt;/font&gt;&lt;/b&gt;" style="rounded=0;whiteSpace=wrap;html=1;" parent="1" vertex="1">
          <mxGeometry x="1440" y="40" width="120" height="60" as="geometry" />
        </mxCell>
        <mxCell id="Qxd5GKGvkfQN9am01lqt-38" value="" style="endArrow=none;dashed=1;html=1;rounded=0;entryX=0.5;entryY=1;entryDx=0;entryDy=0;" parent="1" target="Qxd5GKGvkfQN9am01lqt-37" edge="1" source="TRFPOVRPUdY9dY21Y0_1-11">
          <mxGeometry width="50" height="50" relative="1" as="geometry">
            <mxPoint x="1500" y="1200" as="sourcePoint" />
            <mxPoint x="1510" y="120" as="targetPoint" />
          </mxGeometry>
        </mxCell>
        <mxCell id="Qxd5GKGvkfQN9am01lqt-39" value="" style="endArrow=classic;html=1;rounded=0;" parent="1" edge="1" target="TRFPOVRPUdY9dY21Y0_1-11">
          <mxGeometry width="50" height="50" relative="1" as="geometry">
            <mxPoint x="1300" y="720" as="sourcePoint" />
            <mxPoint x="1500" y="720" as="targetPoint" />
          </mxGeometry>
        </mxCell>
        <mxCell id="Qxd5GKGvkfQN9am01lqt-40" value="&lt;b&gt;&lt;font style=&quot;font-size: 14px;&quot;&gt;handle Request&lt;/font&gt;&lt;/b&gt;" style="edgeLabel;html=1;align=center;verticalAlign=middle;resizable=0;points=[];" parent="Qxd5GKGvkfQN9am01lqt-39" vertex="1" connectable="0">
          <mxGeometry x="0.01" y="-1" relative="1" as="geometry">
            <mxPoint as="offset" />
          </mxGeometry>
        </mxCell>
        <mxCell id="Qxd5GKGvkfQN9am01lqt-41" value="&lt;b&gt;&lt;font style=&quot;font-size: 14px;&quot;&gt;Database Handler&lt;/font&gt;&lt;/b&gt;" style="rounded=0;whiteSpace=wrap;html=1;" parent="1" vertex="1">
          <mxGeometry x="1640" y="40" width="120" height="60" as="geometry" />
        </mxCell>
        <mxCell id="Qxd5GKGvkfQN9am01lqt-43" value="" style="endArrow=none;dashed=1;html=1;rounded=0;entryX=0.5;entryY=1;entryDx=0;entryDy=0;" parent="1" target="Qxd5GKGvkfQN9am01lqt-41" edge="1">
          <mxGeometry width="50" height="50" relative="1" as="geometry">
            <mxPoint x="1700" y="1200" as="sourcePoint" />
            <mxPoint x="1690" y="150" as="targetPoint" />
          </mxGeometry>
        </mxCell>
        <mxCell id="Qxd5GKGvkfQN9am01lqt-44" value="" style="endArrow=classic;html=1;rounded=0;" parent="1" edge="1" target="TRFPOVRPUdY9dY21Y0_1-15">
          <mxGeometry width="50" height="50" relative="1" as="geometry">
            <mxPoint x="1500" y="760" as="sourcePoint" />
            <mxPoint x="1700" y="760" as="targetPoint" />
          </mxGeometry>
        </mxCell>
        <mxCell id="Qxd5GKGvkfQN9am01lqt-46" value="&lt;b&gt;&lt;font style=&quot;font-size: 14px;&quot;&gt;Login&lt;/font&gt;&lt;/b&gt;" style="edgeLabel;html=1;align=center;verticalAlign=middle;resizable=0;points=[];" parent="Qxd5GKGvkfQN9am01lqt-44" vertex="1" connectable="0">
          <mxGeometry x="0.01" relative="1" as="geometry">
            <mxPoint as="offset" />
          </mxGeometry>
        </mxCell>
        <mxCell id="Qxd5GKGvkfQN9am01lqt-55" value="&lt;b&gt;&lt;font style=&quot;font-size: 12px;&quot;&gt;Alternative&lt;/font&gt;&lt;/b&gt;" style="shape=umlFrame;whiteSpace=wrap;html=1;pointerEvents=0;" parent="1" vertex="1">
          <mxGeometry x="50" y="260" width="270" height="120" as="geometry" />
        </mxCell>
        <mxCell id="Qxd5GKGvkfQN9am01lqt-56" value="" style="endArrow=none;dashed=1;html=1;rounded=0;entryX=1.001;entryY=0.449;entryDx=0;entryDy=0;entryPerimeter=0;exitX=0;exitY=0.45;exitDx=0;exitDy=0;exitPerimeter=0;" parent="1" edge="1">
          <mxGeometry width="50" height="50" relative="1" as="geometry">
            <mxPoint x="49.73" y="320.15" as="sourcePoint" />
            <mxPoint x="320" y="320" as="targetPoint" />
          </mxGeometry>
        </mxCell>
        <mxCell id="Qxd5GKGvkfQN9am01lqt-57" value="&lt;font color=&quot;#00cc00&quot;&gt;&lt;span style=&quot;font-size: 13px;&quot;&gt;&lt;b&gt;Valid&lt;/b&gt;&lt;/span&gt;&lt;/font&gt;&lt;div&gt;&lt;font color=&quot;#00cc00&quot;&gt;&lt;span style=&quot;font-size: 13px;&quot;&gt;&lt;b&gt;Data&lt;/b&gt;&lt;/span&gt;&lt;/font&gt;&lt;/div&gt;" style="text;html=1;align=center;verticalAlign=middle;whiteSpace=wrap;rounded=0;" parent="1" vertex="1">
          <mxGeometry x="50" y="290" width="60" height="30" as="geometry" />
        </mxCell>
        <mxCell id="Qxd5GKGvkfQN9am01lqt-58" value="&lt;font color=&quot;#ff0000&quot;&gt;Invalid&lt;/font&gt;&lt;div&gt;&lt;font color=&quot;#ff0000&quot;&gt;Data&lt;/font&gt;&lt;/div&gt;" style="text;html=1;align=center;verticalAlign=middle;whiteSpace=wrap;rounded=0;" parent="1" vertex="1">
          <mxGeometry x="50" y="330" width="60" height="30" as="geometry" />
        </mxCell>
        <mxCell id="Qxd5GKGvkfQN9am01lqt-59" value="" style="html=1;points=[[0,0,0,0,5],[0,1,0,0,-5],[1,0,0,0,5],[1,1,0,0,-5]];perimeter=orthogonalPerimeter;outlineConnect=0;targetShapes=umlLifeline;portConstraint=eastwest;newEdgeStyle={&quot;curved&quot;:0,&quot;rounded&quot;:0};" parent="1" vertex="1">
          <mxGeometry x="295" y="210" width="10" height="40" as="geometry" />
        </mxCell>
        <mxCell id="Qxd5GKGvkfQN9am01lqt-60" value="&lt;b&gt;&lt;font color=&quot;#ff0000&quot; style=&quot;font-size: 13px;&quot;&gt;check input&lt;/font&gt;&lt;/b&gt;" style="html=1;align=left;spacingLeft=2;endArrow=block;rounded=0;edgeStyle=orthogonalEdgeStyle;curved=0;rounded=0;" parent="1" target="Qxd5GKGvkfQN9am01lqt-59" edge="1">
          <mxGeometry relative="1" as="geometry">
            <mxPoint x="300" y="180" as="sourcePoint" />
            <Array as="points">
              <mxPoint x="330" y="210" />
            </Array>
          </mxGeometry>
        </mxCell>
        <mxCell id="Qxd5GKGvkfQN9am01lqt-61" value="Alternative" style="shape=umlFrame;whiteSpace=wrap;html=1;pointerEvents=0;" parent="1" vertex="1">
          <mxGeometry x="245" y="400" width="700" height="240" as="geometry" />
        </mxCell>
        <mxCell id="Qxd5GKGvkfQN9am01lqt-62" value="" style="endArrow=none;dashed=1;html=1;rounded=0;entryX=1;entryY=0.667;entryDx=0;entryDy=0;entryPerimeter=0;exitX=0.001;exitY=0.664;exitDx=0;exitDy=0;exitPerimeter=0;" parent="1" source="Qxd5GKGvkfQN9am01lqt-61" target="Qxd5GKGvkfQN9am01lqt-61" edge="1">
          <mxGeometry width="50" height="50" relative="1" as="geometry">
            <mxPoint x="550" y="740" as="sourcePoint" />
            <mxPoint x="600" y="690" as="targetPoint" />
            <Array as="points" />
          </mxGeometry>
        </mxCell>
        <mxCell id="Qxd5GKGvkfQN9am01lqt-63" value="&lt;font color=&quot;#00cc00&quot;&gt;Online&lt;/font&gt;" style="text;html=1;align=center;verticalAlign=middle;whiteSpace=wrap;rounded=0;" parent="1" vertex="1">
          <mxGeometry x="240" y="460" width="60" height="30" as="geometry" />
        </mxCell>
        <mxCell id="Qxd5GKGvkfQN9am01lqt-64" value="&lt;font color=&quot;#ff0000&quot;&gt;Offline&lt;/font&gt;" style="text;html=1;align=center;verticalAlign=middle;whiteSpace=wrap;rounded=0;" parent="1" vertex="1">
          <mxGeometry x="240" y="560" width="60" height="30" as="geometry" />
        </mxCell>
        <mxCell id="Qxd5GKGvkfQN9am01lqt-65" value="&lt;b&gt;&lt;font style=&quot;font-size: 13px;&quot;&gt;state changed(offline)&lt;/font&gt;&lt;/b&gt;" style="html=1;verticalAlign=bottom;endArrow=open;dashed=1;endSize=8;curved=0;rounded=0;" parent="1" edge="1">
          <mxGeometry relative="1" as="geometry">
            <mxPoint x="905" y="590" as="sourcePoint" />
            <mxPoint x="705" y="590" as="targetPoint" />
          </mxGeometry>
        </mxCell>
        <mxCell id="Qxd5GKGvkfQN9am01lqt-68" value="&lt;b style=&quot;font-size: 13px;&quot;&gt;closed Socket Control View slot&lt;/b&gt;" style="html=1;verticalAlign=bottom;endArrow=open;dashed=1;endSize=8;curved=0;rounded=0;" parent="1" edge="1">
          <mxGeometry relative="1" as="geometry">
            <mxPoint x="695" y="600" as="sourcePoint" />
            <mxPoint x="495" y="600" as="targetPoint" />
          </mxGeometry>
        </mxCell>
        <mxCell id="Qxd5GKGvkfQN9am01lqt-69" value="&lt;b&gt;&lt;font style=&quot;font-size: 13px;&quot;&gt;Closed Socket action&lt;/font&gt;&lt;/b&gt;" style="html=1;verticalAlign=bottom;endArrow=open;dashed=1;endSize=8;curved=0;rounded=0;" parent="1" edge="1">
          <mxGeometry relative="1" as="geometry">
            <mxPoint x="500" y="620" as="sourcePoint" />
            <mxPoint x="300" y="620" as="targetPoint" />
          </mxGeometry>
        </mxCell>
        <mxCell id="Qxd5GKGvkfQN9am01lqt-72" value="&lt;b&gt;&lt;font style=&quot;font-size: 13px;&quot;&gt;state changed(online)&lt;/font&gt;&lt;/b&gt;" style="html=1;verticalAlign=bottom;endArrow=open;dashed=1;endSize=8;curved=0;rounded=0;" parent="1" edge="1">
          <mxGeometry relative="1" as="geometry">
            <mxPoint x="900" y="500" as="sourcePoint" />
            <mxPoint x="700" y="500" as="targetPoint" />
          </mxGeometry>
        </mxCell>
        <mxCell id="Qxd5GKGvkfQN9am01lqt-73" value="&lt;b&gt;&lt;font style=&quot;font-size: 12px;&quot;&gt;connected Socket Control View slot&lt;/font&gt;&lt;/b&gt;" style="html=1;verticalAlign=bottom;endArrow=open;dashed=1;endSize=8;curved=0;rounded=0;" parent="1" edge="1">
          <mxGeometry relative="1" as="geometry">
            <mxPoint x="695" y="519.8000000000001" as="sourcePoint" />
            <mxPoint x="495" y="519.8000000000001" as="targetPoint" />
          </mxGeometry>
        </mxCell>
        <mxCell id="Qxd5GKGvkfQN9am01lqt-74" value="&lt;b&gt;&lt;font style=&quot;font-size: 14px;&quot;&gt;Connected Action&lt;/font&gt;&lt;/b&gt;" style="html=1;verticalAlign=bottom;endArrow=open;dashed=1;endSize=8;curved=0;rounded=0;" parent="1" edge="1">
          <mxGeometry relative="1" as="geometry">
            <mxPoint x="500" y="540" as="sourcePoint" />
            <mxPoint x="300" y="540" as="targetPoint" />
          </mxGeometry>
        </mxCell>
        <mxCell id="Qxd5GKGvkfQN9am01lqt-77" value="&lt;b&gt;Invalid input message box&lt;/b&gt;" style="html=1;verticalAlign=bottom;endArrow=open;dashed=1;endSize=8;curved=0;rounded=0;" parent="1" edge="1">
          <mxGeometry relative="1" as="geometry">
            <mxPoint x="300" y="360" as="sourcePoint" />
            <mxPoint x="120" y="360" as="targetPoint" />
          </mxGeometry>
        </mxCell>
        <mxCell id="Qxd5GKGvkfQN9am01lqt-80" value="frame" style="shape=umlFrame;whiteSpace=wrap;html=1;pointerEvents=0;" parent="1" vertex="1">
          <mxGeometry x="240" y="880" width="710" height="220" as="geometry" />
        </mxCell>
        <mxCell id="Qxd5GKGvkfQN9am01lqt-81" value="" style="endArrow=none;dashed=1;html=1;rounded=0;entryX=1;entryY=0.547;entryDx=0;entryDy=0;entryPerimeter=0;exitX=0.001;exitY=0.547;exitDx=0;exitDy=0;exitPerimeter=0;" parent="1" edge="1">
          <mxGeometry width="50" height="50" relative="1" as="geometry">
            <mxPoint x="240.7099999999998" y="1009.9999999999999" as="sourcePoint" />
            <mxPoint x="950" y="1009.9999999999999" as="targetPoint" />
          </mxGeometry>
        </mxCell>
        <mxCell id="Qxd5GKGvkfQN9am01lqt-82" value="&lt;font style=&quot;font-size: 14px;&quot; color=&quot;#00cc00&quot;&gt;Correct&lt;/font&gt;&lt;div style=&quot;font-size: 14px;&quot;&gt;&lt;font style=&quot;font-size: 14px;&quot; color=&quot;#00cc00&quot;&gt;user name&lt;/font&gt;&lt;/div&gt;&lt;div style=&quot;font-size: 14px;&quot;&gt;&lt;font style=&quot;font-size: 14px;&quot; color=&quot;#00cc00&quot;&gt;&amp;amp;&lt;/font&gt;&lt;/div&gt;&lt;div style=&quot;font-size: 14px;&quot;&gt;&lt;font style=&quot;font-size: 14px;&quot; color=&quot;#00cc00&quot;&gt;password&lt;/font&gt;&lt;/div&gt;" style="text;align=center;fontStyle=1;verticalAlign=middle;spacingLeft=3;spacingRight=3;strokeColor=none;rotatable=0;points=[[0,0.5],[1,0.5]];portConstraint=eastwest;html=1;" parent="1" vertex="1">
          <mxGeometry x="230" y="940" width="80" height="26" as="geometry" />
        </mxCell>
        <mxCell id="Qxd5GKGvkfQN9am01lqt-83" value="&lt;div style=&quot;forced-color-adjust: none; font-family: Helvetica; font-style: normal; font-variant-ligatures: normal; font-variant-caps: normal; letter-spacing: normal; orphans: 2; text-align: center; text-indent: 0px; text-transform: none; widows: 2; word-spacing: 0px; -webkit-text-stroke-width: 0px; white-space: nowrap; background-color: rgb(251, 251, 251); text-decoration-thickness: initial; text-decoration-style: initial; text-decoration-color: initial; font-size: 14px;&quot;&gt;&lt;font style=&quot;font-size: 14px;&quot; color=&quot;#ff0000&quot;&gt;Wrong&lt;/font&gt;&lt;/div&gt;&lt;div style=&quot;forced-color-adjust: none; font-family: Helvetica; font-style: normal; font-variant-ligatures: normal; font-variant-caps: normal; letter-spacing: normal; orphans: 2; text-align: center; text-indent: 0px; text-transform: none; widows: 2; word-spacing: 0px; -webkit-text-stroke-width: 0px; white-space: nowrap; background-color: rgb(251, 251, 251); text-decoration-thickness: initial; text-decoration-style: initial; text-decoration-color: initial; font-size: 14px;&quot;&gt;&lt;font style=&quot;font-size: 14px;&quot; color=&quot;#ff0000&quot;&gt;user name&lt;/font&gt;&lt;/div&gt;&lt;div style=&quot;forced-color-adjust: none; font-family: Helvetica; font-style: normal; font-variant-ligatures: normal; font-variant-caps: normal; letter-spacing: normal; orphans: 2; text-align: center; text-indent: 0px; text-transform: none; widows: 2; word-spacing: 0px; -webkit-text-stroke-width: 0px; white-space: nowrap; background-color: rgb(251, 251, 251); text-decoration-thickness: initial; text-decoration-style: initial; text-decoration-color: initial; font-size: 14px;&quot;&gt;&lt;font style=&quot;font-size: 14px;&quot; color=&quot;#ff0000&quot;&gt;&amp;amp;&lt;/font&gt;&lt;/div&gt;&lt;div style=&quot;forced-color-adjust: none; font-family: Helvetica; font-style: normal; font-variant-ligatures: normal; font-variant-caps: normal; letter-spacing: normal; orphans: 2; text-align: center; text-indent: 0px; text-transform: none; widows: 2; word-spacing: 0px; -webkit-text-stroke-width: 0px; white-space: nowrap; background-color: rgb(251, 251, 251); text-decoration-thickness: initial; text-decoration-style: initial; text-decoration-color: initial; font-size: 14px;&quot;&gt;&lt;font style=&quot;font-size: 14px;&quot; color=&quot;#ff0000&quot;&gt;password&lt;/font&gt;&lt;/div&gt;" style="text;whiteSpace=wrap;html=1;" parent="1" vertex="1">
          <mxGeometry x="240" y="1010" width="90" height="80" as="geometry" />
        </mxCell>
        <mxCell id="Qxd5GKGvkfQN9am01lqt-85" value="&lt;b&gt;&lt;font style=&quot;font-size: 11px;&quot;&gt;returns response to Request Handler&lt;/font&gt;&lt;/b&gt;" style="html=1;verticalAlign=bottom;endArrow=open;dashed=1;endSize=8;curved=0;rounded=0;" parent="1" edge="1">
          <mxGeometry relative="1" as="geometry">
            <mxPoint x="1700" y="810" as="sourcePoint" />
            <mxPoint x="1500" y="810" as="targetPoint" />
          </mxGeometry>
        </mxCell>
        <mxCell id="Qxd5GKGvkfQN9am01lqt-86" value="&lt;b&gt;&lt;font style=&quot;font-size: 12px;&quot;&gt;returns response to Client handler&lt;/font&gt;&lt;/b&gt;" style="html=1;verticalAlign=bottom;endArrow=open;dashed=1;endSize=8;curved=0;rounded=0;" parent="1" edge="1" target="TRFPOVRPUdY9dY21Y0_1-9">
          <mxGeometry relative="1" as="geometry">
            <mxPoint x="1500" y="840" as="sourcePoint" />
            <mxPoint x="1300" y="840" as="targetPoint" />
          </mxGeometry>
        </mxCell>
        <mxCell id="Qxd5GKGvkfQN9am01lqt-88" value="&lt;b&gt;&lt;font style=&quot;font-size: 13px;&quot;&gt;Write the response to the socket handler&lt;/font&gt;&lt;/b&gt;" style="html=1;verticalAlign=bottom;endArrow=open;dashed=1;endSize=8;curved=0;rounded=0;" parent="1" edge="1">
          <mxGeometry relative="1" as="geometry">
            <mxPoint x="1300" y="900" as="sourcePoint" />
            <mxPoint x="900" y="900" as="targetPoint" />
          </mxGeometry>
        </mxCell>
        <mxCell id="Qxd5GKGvkfQN9am01lqt-89" value="User Screen_Init" style="html=1;verticalAlign=bottom;endArrow=open;dashed=1;endSize=8;curved=0;rounded=0;" parent="1" edge="1">
          <mxGeometry relative="1" as="geometry">
            <mxPoint x="900" y="920" as="sourcePoint" />
            <mxPoint x="700" y="920" as="targetPoint" />
          </mxGeometry>
        </mxCell>
        <mxCell id="Qxd5GKGvkfQN9am01lqt-90" value="User Screen slot" style="html=1;verticalAlign=bottom;endArrow=open;dashed=1;endSize=8;curved=0;rounded=0;" parent="1" edge="1">
          <mxGeometry relative="1" as="geometry">
            <mxPoint x="700" y="940" as="sourcePoint" />
            <mxPoint x="500" y="940" as="targetPoint" />
          </mxGeometry>
        </mxCell>
        <mxCell id="Qxd5GKGvkfQN9am01lqt-91" value="User window" style="html=1;verticalAlign=bottom;endArrow=open;dashed=1;endSize=8;curved=0;rounded=0;" parent="1" edge="1">
          <mxGeometry relative="1" as="geometry">
            <mxPoint x="500" y="960" as="sourcePoint" />
            <mxPoint x="300" y="960" as="targetPoint" />
          </mxGeometry>
        </mxCell>
        <mxCell id="Qxd5GKGvkfQN9am01lqt-92" value="no User Control" style="html=1;verticalAlign=bottom;endArrow=open;dashed=1;endSize=8;curved=0;rounded=0;" parent="1" edge="1">
          <mxGeometry relative="1" as="geometry">
            <mxPoint x="900" y="1030" as="sourcePoint" />
            <mxPoint x="700" y="1030" as="targetPoint" />
          </mxGeometry>
        </mxCell>
        <mxCell id="Qxd5GKGvkfQN9am01lqt-93" value="no User_Control_action" style="html=1;verticalAlign=bottom;endArrow=open;dashed=1;endSize=8;curved=0;rounded=0;" parent="1" edge="1">
          <mxGeometry relative="1" as="geometry">
            <mxPoint x="700" y="1050" as="sourcePoint" />
            <mxPoint x="500" y="1050" as="targetPoint" />
          </mxGeometry>
        </mxCell>
        <mxCell id="Qxd5GKGvkfQN9am01lqt-94" value="message box no user found" style="html=1;verticalAlign=bottom;endArrow=open;dashed=1;endSize=8;curved=0;rounded=0;entryX=0.667;entryY=0.875;entryDx=0;entryDy=0;entryPerimeter=0;" parent="1" target="Qxd5GKGvkfQN9am01lqt-83" edge="1">
          <mxGeometry relative="1" as="geometry">
            <mxPoint x="500" y="1080" as="sourcePoint" />
            <mxPoint x="420" y="1080" as="targetPoint" />
          </mxGeometry>
        </mxCell>
        <mxCell id="TRFPOVRPUdY9dY21Y0_1-1" value="" style="endArrow=none;dashed=1;html=1;rounded=0;entryX=0.5;entryY=1;entryDx=0;entryDy=0;" edge="1" parent="1" target="TRFPOVRPUdY9dY21Y0_1-2">
          <mxGeometry width="50" height="50" relative="1" as="geometry">
            <mxPoint x="300" y="1200" as="sourcePoint" />
            <mxPoint x="300" y="100" as="targetPoint" />
          </mxGeometry>
        </mxCell>
        <mxCell id="TRFPOVRPUdY9dY21Y0_1-2" value="" style="html=1;points=[[0,0,0,0,5],[0,1,0,0,-5],[1,0,0,0,5],[1,1,0,0,-5]];perimeter=orthogonalPerimeter;outlineConnect=0;targetShapes=umlLifeline;portConstraint=eastwest;newEdgeStyle={&quot;curved&quot;:0,&quot;rounded&quot;:0};" vertex="1" parent="1">
          <mxGeometry x="295" y="100" width="10" height="1010" as="geometry" />
        </mxCell>
        <mxCell id="TRFPOVRPUdY9dY21Y0_1-3" value="" style="html=1;points=[[0,0,0,0,5],[0,1,0,0,-5],[1,0,0,0,5],[1,1,0,0,-5]];perimeter=orthogonalPerimeter;outlineConnect=0;targetShapes=umlLifeline;portConstraint=eastwest;newEdgeStyle={&quot;curved&quot;:0,&quot;rounded&quot;:0};" vertex="1" parent="1">
          <mxGeometry x="495" y="410" width="10" height="680" as="geometry" />
        </mxCell>
        <mxCell id="TRFPOVRPUdY9dY21Y0_1-4" value="" style="html=1;points=[[0,0,0,0,5],[0,1,0,0,-5],[1,0,0,0,5],[1,1,0,0,-5]];perimeter=orthogonalPerimeter;outlineConnect=0;targetShapes=umlLifeline;portConstraint=eastwest;newEdgeStyle={&quot;curved&quot;:0,&quot;rounded&quot;:0};" vertex="1" parent="1">
          <mxGeometry x="695" y="440" width="10" height="610" as="geometry" />
        </mxCell>
        <mxCell id="TRFPOVRPUdY9dY21Y0_1-6" value="" style="html=1;points=[[0,0,0,0,5],[0,1,0,0,-5],[1,0,0,0,5],[1,1,0,0,-5]];perimeter=orthogonalPerimeter;outlineConnect=0;targetShapes=umlLifeline;portConstraint=eastwest;newEdgeStyle={&quot;curved&quot;:0,&quot;rounded&quot;:0};" vertex="1" parent="1">
          <mxGeometry x="895" y="440" width="10" height="600" as="geometry" />
        </mxCell>
        <mxCell id="TRFPOVRPUdY9dY21Y0_1-7" value="" style="html=1;points=[[0,0,0,0,5],[0,1,0,0,-5],[1,0,0,0,5],[1,1,0,0,-5]];perimeter=orthogonalPerimeter;outlineConnect=0;targetShapes=umlLifeline;portConstraint=eastwest;newEdgeStyle={&quot;curved&quot;:0,&quot;rounded&quot;:0};" vertex="1" parent="1">
          <mxGeometry x="1095" y="640" width="10" height="80" as="geometry" />
        </mxCell>
        <mxCell id="TRFPOVRPUdY9dY21Y0_1-8" value="" style="endArrow=none;dashed=1;html=1;rounded=0;entryX=0.5;entryY=1;entryDx=0;entryDy=0;" edge="1" parent="1" target="TRFPOVRPUdY9dY21Y0_1-9">
          <mxGeometry width="50" height="50" relative="1" as="geometry">
            <mxPoint x="1310" y="1200" as="sourcePoint" />
            <mxPoint x="1300" y="100" as="targetPoint" />
          </mxGeometry>
        </mxCell>
        <mxCell id="TRFPOVRPUdY9dY21Y0_1-9" value="" style="html=1;points=[[0,0,0,0,5],[0,1,0,0,-5],[1,0,0,0,5],[1,1,0,0,-5]];perimeter=orthogonalPerimeter;outlineConnect=0;targetShapes=umlLifeline;portConstraint=eastwest;newEdgeStyle={&quot;curved&quot;:0,&quot;rounded&quot;:0};" vertex="1" parent="1">
          <mxGeometry x="1305" y="660" width="10" height="260" as="geometry" />
        </mxCell>
        <mxCell id="TRFPOVRPUdY9dY21Y0_1-10" value="" style="endArrow=none;dashed=1;html=1;rounded=0;entryX=0.5;entryY=1;entryDx=0;entryDy=0;" edge="1" parent="1" target="TRFPOVRPUdY9dY21Y0_1-11">
          <mxGeometry width="50" height="50" relative="1" as="geometry">
            <mxPoint x="1500" y="1200" as="sourcePoint" />
            <mxPoint x="1500" y="100" as="targetPoint" />
          </mxGeometry>
        </mxCell>
        <mxCell id="TRFPOVRPUdY9dY21Y0_1-11" value="" style="html=1;points=[[0,0,0,0,5],[0,1,0,0,-5],[1,0,0,0,5],[1,1,0,0,-5]];perimeter=orthogonalPerimeter;outlineConnect=0;targetShapes=umlLifeline;portConstraint=eastwest;newEdgeStyle={&quot;curved&quot;:0,&quot;rounded&quot;:0};" vertex="1" parent="1">
          <mxGeometry x="1490" y="710" width="10" height="130" as="geometry" />
        </mxCell>
        <mxCell id="TRFPOVRPUdY9dY21Y0_1-15" value="" style="html=1;points=[[0,0,0,0,5],[0,1,0,0,-5],[1,0,0,0,5],[1,1,0,0,-5]];perimeter=orthogonalPerimeter;outlineConnect=0;targetShapes=umlLifeline;portConstraint=eastwest;newEdgeStyle={&quot;curved&quot;:0,&quot;rounded&quot;:0};" vertex="1" parent="1">
          <mxGeometry x="1695" y="720" width="10" height="100" as="geometry" />
        </mxCell>
      </root>
    </mxGraphModel>
  </diagram>
</mxfile>
